<?xml version="1.0" encoding="UTF-8" standalone="no"?>
<svg
   xmlns:dc="http://purl.org/dc/elements/1.1/"
   xmlns:cc="http://creativecommons.org/ns#"
   xmlns:rdf="http://www.w3.org/1999/02/22-rdf-syntax-ns#"
   xmlns:svg="http://www.w3.org/2000/svg"
   xmlns="http://www.w3.org/2000/svg"
   xmlns:sodipodi="http://sodipodi.sourceforge.net/DTD/sodipodi-0.dtd"
   xmlns:inkscape="http://www.inkscape.org/namespaces/inkscape"
   height="512"
   viewBox="0 0 58 58"
   width="512"
   version="1.1"
   id="svg32"
   sodipodi:docname="parent.svg"
   inkscape:version="0.92.3 (2405546, 2018-03-11)">
  <metadata
     id="metadata38">
    <rdf:RDF>
      <cc:Work
         rdf:about="">
        <dc:format>image/svg+xml</dc:format>
        <dc:type
           rdf:resource="http://purl.org/dc/dcmitype/StillImage" />
      </cc:Work>
    </rdf:RDF>
  </metadata>
  <defs
     id="defs36" />
  <sodipodi:namedview
     pagecolor="#ffffff"
     bordercolor="#666666"
     borderopacity="1"
     objecttolerance="10"
     gridtolerance="10"
     guidetolerance="10"
     inkscape:pageopacity="0"
     inkscape:pageshadow="2"
     inkscape:window-width="1600"
     inkscape:window-height="838"
     id="namedview34"
     showgrid="false"
     inkscape:zoom="0.65186406"
     inkscape:cx="-59.535693"
     inkscape:cy="242.93286"
     inkscape:window-x="0"
     inkscape:window-y="34"
     inkscape:window-maximized="1"
     inkscape:current-layer="svg32" />
  <g
     id="049---Parental-Advice"
     fill="none">
    <path
       id="Shape"
       d="m32 54.87c-2.3307805.2015577-4.6759283.1680556-7-.1l-12-3.75c-16.968-9.318-17.354-29.7-.96-39.48l13.9-4.41c1.6827557-.14564478 3.3738594-.16903949 5.06-.07l14.5 4.21c12.283 7.044 16.083 20.6 8.85 31.39-.2241257.3271216-.3459518.7134845-.35 1.11v13.23c.0003213.3317301-.1638849.642028-.4383504.828344-.2744656.186316-.6234617.2243964-.9316496.101656-10.23-4.519-7.693-3.27-11.442-5.43z"
       fill="#f29c1f" />
    <path
       id="path3"
       d="m19 40v13.53c-2.0822632-.6245682-4.0932668-1.4658381-6-2.51v-8.29c.6181681-.356899.9992679-1.0162016 1-1.73v-1z"
       fill="#5d4c72" />
    <path
       id="path5"
       d="m25 40v14.77c-2.0346782-.2228823-4.043658-.6380715-6-1.24v-13.53z"
       fill="#3d324c" />
    <path
       id="path7"
       d="m38 40v13.81c-1.9646542.5303582-3.9725505.8850866-6 1.06v-12.14c1.177-.706 1-1.8 1-2.73z"
       fill="#285680" />
    <path
       id="path9"
       d="m44 42.73v11.39c-3.767-1.67-2.274-1.3-6-.31v-13.81h5v1c.0007321.7137984.3818319 1.373101 1 1.73z"
       fill="#35495e" />
    <path
       id="path11"
       d="m22 17.12v4.07s-.36 1.8-2.99 1.8-3.01-1.8-3.01-1.8v-4.07c.76 1.04 1.02 1.88 2.19 1.88h1.62c1.17 0 1.43-.84 2.19-1.88z"
       fill="#f9c795" />
    <path
       id="path13"
       d="m26 11.07c0 1.559-1.069 2.514-2.03 2.3-.0252002 1.0461182-.4345545 2.0463665-1.15 2.81-1.5 1.416-1.5 2.82-3.01 2.82h-1.62c-1.49 0-1.551-1.448-3.01-2.82-.7154455-.7636335-1.1247998-1.7638818-1.15-2.81-1.672.372-2.7-2.347-1.53-3.93.274847-.42751854.7420432-.69288601 1.25-.71.0286559-.90389568.3129822-1.78114652.82-2.53.436-.633.726-1.055 1.46-1.12 1.434-.092 4.5-.093 5.94 0 .738.065 1.026.491 1.46 1.12.5070178.74885348.7913441 1.62610432.82 2.53 1.077 0 1.75 1.224 1.75 2.34z"
       fill="#fdd7ad" />
    <path
       id="path15"
       d="m26 6c-.0087008 1.16412644-.1769333 2.32156628-.5 3.44-.2765323-.42573411-.7427128-.69052464-1.25-.71-.0500014-1.2149854-.540537-2.37023216-1.38-3.25-.2416507-.2379389-.5614547-.38007402-.9-.4-1.434-.092-4.5-.093-5.94 0-.3385453.01992598-.6583493.1620611-.9.4-.8399301.87946058-1.330544 2.03489192-1.38 3.25-.5079568.01711399-.975153.28248146-1.25.71-.3230667-1.11843372-.4912992-2.27587356-.5-3.44 0-3.3137085 2.6862915-6 6-6h2c3.3137085 0 6 2.6862915 6 6z"
       fill="#805333" />
    <path
       id="path17"
       d="m45.36 12c-.0041939.4222191-.2070022.8178044-.5473735 1.0676723s-.7785484.3248327-1.1826265.2023277c-.3216726-.0875648-.6566886.0864695-.77.4-.4553571 1.2407598-1.0813759 2.4120208-1.86 3.48-1.873 2.429-4.066 2.507-6 0-.7786462-1.0679654-1.4046667-2.2392295-1.86-3.48-.1133114-.3135305-.4483274-.4875648-.77-.4-.4040781.122505-.8422552.0475402-1.1826265-.2023277s-.5431796-.6454532-.5473735-1.0676723c0-1.01-.84-1.72-.6-2.51.1663427-.51786185.5737847-.92270881 1.0926988-1.08573929.5189141-.16303049 1.0846804-.06394248 1.5173012.26573929.0012907-.17841701.0819194-.34700427.22-.46.54-.42 3.33-1.96 4.8-3.1.1944019-.15008773.4655981-.15008773.66 0 1.47 1.14 4.26 2.68 4.8 3.1.1380806.11299573.2187093.28158299.22.46.4326208-.32968177.9983871-.42876978 1.5173012-.26573929.5189141.16303048.9263561.56787744 1.0926988 1.08573929.24.79-.6 1.5-.6 2.51z"
       fill="#fdd7ad" />
    <path
       id="path19"
       d="m45 6.62v1.83c-.5500662-.22469984-1.1780234-.14097221-1.65.22-.0012907-.17841701-.0819194-.34700427-.22-.46-.54-.42-3.33-1.96-4.8-3.1-.1944019-.15008773-.4655981-.15008773-.66 0-1.47 1.14-4.26 2.68-4.8 3.1-.1380806.11299573-.2187093.28158299-.22.46-.4725367-.35961788-1.0997481-.44324607-1.65-.22v-1.83c-.030521-3.62193173 2.8781159-6.58426661 6.5-6.62h1c1.7400107.01531112 3.4026034.72152262 4.6217195 1.9631455s1.8947987 2.91685489 1.8782805 4.6568545z"
       fill="#805333" />
    <path
       id="path21"
       d="m41 17.15v3.85s0 2-3 2-3-2-3-2v-3.85c1.873 2.429 4.066 2.507 6 0z"
       fill="#f9c795" />
    <path
       id="path23"
       d="m48 20c.006305 1.3149732-.8517231 2.4779876-2.11 2.86-.9498953-1.1748097-2.3792135-1.8582369-3.89-1.86h-1v-3.85c.7786462-1.0679654 1.4046667-2.2392295 1.86-3.48.1133114-.3135305.4483274-.4875648.77-.4.4897932.1519648 1.0233031.0078782 1.37-.37v4.1c1.6568542 0 3 1.3431458 3 3z"
       fill="#805333" />
    <path
       id="path25"
       d="m35 17.15v3.85h-1c-1.5107865.0017631-2.9401047.6851903-3.89 1.86-.9077685-.2726036-1.629433-.9645088-1.94-1.86-.3247275-.9184677-.1832615-1.9374242.3793913-2.7326932.5626528-.7952689 1.4764267-1.2678176 2.4506087-1.2673068v-4.1c.3469612.3774431.8801974.5214558 1.37.37.3216726-.0875648.6566886.0864695.77.4.4553571 1.2407598 1.0813759 2.4120208 1.86 3.48z"
       fill="#805333" />
    <path
       id="path27"
       d="m47 26v15c.0028231.5305905-.2101411 1.0395388-.59 1.41-.5718399.5684616-1.4291108.7379389-2.1742425.4298346s-1.2323721-1.0335232-1.2357575-1.8398346v-1h-10v1c0 1.1045695-.8954305 2-2 2s-2-.8954305-2-2c0-16.234-.043-15.344.1-16 .4791332-2.3259925 2.5251746-3.9962304 4.9-4h1s0 2 3 2 3-2 3-2h1c2.7598251.0038557 4.9961443 2.2401749 5 5z"
       fill="#4482c3" />
    <path
       id="path29"
       d="m30.11 22.86c-.5072789.6195788-.8541602 1.3545551-1.01 2.14h-4.1v15h-11v1c0 1.1045695-.8954305 2-2 2s-2-.8954305-2-2v-15c0-2.7614237 2.2385763-5 5-5h1v.19s.38 1.8 3.01 1.8 2.99-1.8 2.99-1.8v-.19h6.17c.310567.8954912 1.0322315 1.5873964 1.94 1.86z"
       fill="#7d6599" />
  </g>
  <rect
     style="opacity:0;fill:#f9f9f9;fill-opacity:1;stroke:none;stroke-width:0.25688979;stroke-miterlimit:4;stroke-dasharray:none;stroke-opacity:1;paint-order:stroke fill markers"
     id="rect845"
     width="58.100525"
     height="75.547874"
     x="1.8513477e-07"
     y="-17.447342"
     inkscape:export-xdpi="198.19536"
     inkscape:export-ydpi="198.19536" />
</svg>
